# xmcd CD database file
#
# Track frame offsets:
#	150
#	20475
#	39167
#	55332
#	68957
#	83041
#	104819
#	120157
#	134864
#	148517
#	167336
#	187157
#	210308
#	229950
#	247529
#	258116
#	274901
#	288480
#
# Disc length: 4104 seconds
#
# Revision: 0
# Processed by: cddbd v1.5.2PL0 Copyright (c) Steve Scherf et al.
# Submitted via: CDex 1.51
#
DISCID=01100612
DTITLE=Finbar Furey - The Last Great Lovesong
DYEAR=2014
DGENRE=Country
TTITLE0=Once When i was
TTITLE1=Colours
TTITLE2=Walking with my Love
TTITLE3=Railway Square
TTITLE4=Whiskey come to me
TTITLE5=Rivers of Steel
TTITLE6=Dan O Hara
TTITLE7=The Last Great Lovesong
TTITLE8=After Sunday Mass
TTITLE9=Begging Change in the Street
TTITLE10=The Ballad For George Best 1
TTITLE11=The Old Man
TTITLE12=Joy of My Heart 
TTITLE13=Something in the Way She Moves
TTITLE14=Schooldays Over
TTITLE15=Waltzing Matilda
TTITLE16=One more Pay Day
TTITLE17=Blowin' in the Wind
EXTD=YEAR: 2014
EXTT0=
EXTT1=
EXTT2=
EXTT3=
EXTT4=
EXTT5=
EXTT6=
EXTT7=
EXTT8=
EXTT9=
EXTT10=
EXTT11=
EXTT12=
EXTT13=
EXTT14=
EXTT15=
EXTT16=
EXTT17=
PLAYORDER=
